<?xml version="1.0" encoding="utf-8"?>
<!-- Generator: Adobe Illustrator 24.0.3, SVG Export Plug-In . SVG Version: 6.00 Build 0)  -->
<svg version="1.1" id="Layer_1" xmlns="http://www.w3.org/2000/svg" xmlns:xlink="http://www.w3.org/1999/xlink" x="0px" y="0px"
	 viewBox="0 0 76.3 75.8" xml:space="preserve">
<style type="text/css">
	.st0{fill:#3B5998;}
</style>
<path class="st0" d="M38.7,1.6C18.6,1.6,2.4,17.8,2.4,37.9c0,18.8,14.1,34.2,32,36.3c0-9,0-17.9,0-26.9c-2.1,0-3.8,0-6,0
	c0-3.4,0-6.8,0-10.2h6c0-0.4,0-0.4,0-0.9c0-2.6,0-4.7,0-7.3c0.4-3.8,1.7-7.3,5.6-9.4c1.7-0.9,3.4-1.7,5.1-1.7h10.7V28
	c0,0-0.4,0-0.9,0c-2.1,0-3.8,0-6,0c-1.7,0-2.6,0.9-2.6,2.6V37h9.4c-0.4,3.4-0.9,6.8-1.3,10.7c-2.6,0-5.6,0-8.1,0v26.5
	c16.2-3.8,28.2-17.9,28.2-35.4C75.4,17.8,58.7,1.6,38.7,1.6z"/>
</svg>
