<?xml version="1.0" encoding="utf-8"?>
<!-- Generator: Adobe Illustrator 24.0.3, SVG Export Plug-In . SVG Version: 6.00 Build 0)  -->
<svg version="1.1" id="Layer_1" xmlns="http://www.w3.org/2000/svg" xmlns:xlink="http://www.w3.org/1999/xlink" x="0px" y="0px"
	 viewBox="0 0 54.1 44.1" xml:space="preserve">
<style type="text/css">
	.st0{fill:#1DA1F2;}
</style>
<g>
	<path class="st0" d="M0.8,38.3c5.8,0.5,11.1-1,15.9-4.5c-5-0.5-8.3-2.8-10.1-7.6c1.8,0.3,3.3,0.3,4.8-0.3c-2.5-0.5-4.5-1.8-6.3-3.8
		c-1.5-1.8-2.3-4-2.3-6.8c1.5,0.8,3,1.3,4.8,1.3c-2.3-1.5-3.8-3.8-4.3-6.6C2.5,7.5,3,4.7,4.3,2.4C10.1,9.2,17.4,13,26.5,13.8
		c0-0.8-0.3-1.3-0.3-2C25.8,5,32.1-0.6,38.9,0.7c2.3,0.5,4,1.3,5.8,3C45,4,45.2,4,45.5,4c2-0.5,4-1.3,5.8-2.3c0.3,0,0.3-0.3,0.5-0.3
		c-0.3,1.3-1,2.3-1.8,3.3s-1.8,1.8-2.5,2.5c1-0.3,2-0.3,3-0.8c1-0.3,1.8-0.5,3-1C53,6,52.8,6.8,52.3,7c-1.3,1.3-2.5,2.5-3.8,3.5
		c-0.3,0.3-0.3,0.5-0.3,0.8c0,9.3-3.3,17.2-9.8,23.5c-4.3,4-9.3,6.6-14.9,7.6s-11.1,0.5-16.4-1.3C4.9,40.6,2.8,39.6,0.8,38.3
		C1.1,38.3,1.1,38.3,0.8,38.3z"/>
</g>
</svg>
